<?xml version="1.0" encoding="UTF-8"?>
<svg width="37px" height="40px" viewBox="0 0 37 40" version="1.1" xmlns="http://www.w3.org/2000/svg" xmlns:xlink="http://www.w3.org/1999/xlink">
    <!-- Generator: Sketch 61.2 (89653) - https://sketch.com -->
    <title>Artboard</title>
    <desc>Created with Sketch.</desc>
    <defs>
        <linearGradient x1="50%" y1="0%" x2="3.4285852%" y2="100%" id="linearGradient-1">
            <stop stop-color="#FFB8BB" offset="0%"></stop>
            <stop stop-color="#FFB6B9" offset="28.7874789%"></stop>
            <stop stop-color="#FF8185" offset="100%"></stop>
        </linearGradient>
        <path d="M9.72516145,0 C14.7682236,8.49961345e-16 18.858965,4.08341594 18.8680039,9.12647002 L18.8862483,19.474 L36.5332483,19.4742857 C36.5332483,28.916777 28.3669221,36.5714286 18.2932483,36.5714286 C8.33276178,36.5714286 0.237002012,29.0878252 0.0563323042,19.7918865 L0.0532482677,19.4742857 L0.067457692,19.4743341 C0.0669508342,19.4696254 0.0664569229,19.4649122 0.0659759972,19.4601945 C0.0574963198,19.3770129 0.0532482677,19.2934542 0.0532482677,19.2098415 L0.0532482677,0 L9.72516145,0 Z" id="path-2"></path>
    </defs>
    <g id="Artboard" stroke="none" stroke-width="1" fill="none" fill-rule="evenodd">
        <g id="Group-4">
            <g id="logo" transform="translate(0.000000, 3.291429)">
                <g id="Group-7" transform="translate(0.038180, 0.000000)">
                    <g id="Group-6">
                        <mask id="mask-3" fill="white">
                            <use xlink:href="#path-2"></use>
                        </mask>
                        <use id="Combined-Shape" fill="url(#linearGradient-1)" xlink:href="#path-2"></use>
                        <g id="Group-5" mask="url(#mask-3)">
                            <g transform="translate(-17.866752, 2.742857)">
                                <path d="M6.94857143,0 L25.92,0 C30.338278,-8.11624501e-16 33.92,3.581722 33.92,8 L33.92,36.1142857 C33.92,36.1647803 33.879066,36.2057143 33.8285714,36.2057143 L6.94857143,36.2057143 C6.89807682,36.2057143 6.85714286,36.1647803 6.85714286,36.1142857 L6.85714286,0.0914285714 C6.85714286,0.0409339657 6.89807682,1.07786537e-15 6.94857143,0 Z" id="Rectangle" stroke="#FFFFFF" stroke-width="1.82857143"></path>
                                <path d="M3.10857143,4.11428571 L25.6,4.11428571 C28.1247303,4.11428571 30.1714286,6.160984 30.1714286,8.68571429 L30.1714286,40.32 L30.1714286,40.32 L3.10857143,40.32 L3.10857143,4.11428571 Z" id="Rectangle" stroke="#FFFFFF" stroke-width="1.82857143"></path>
                                <path d="M3.74857143,8.22857143 L22.9696777,8.30638967 C24.8369234,8.31394937 26.3547776,9.81433498 26.3839499,11.6813681 L26.6057143,25.8742857 L26.6057143,25.8742857 L26.6057143,44.4342857 L3.74857143,44.4342857 L3.74857143,8.22857143 Z" id="Rectangle" stroke="#FFFFFF" stroke-width="1.82857143"></path>
                                <path d="M-5.19711258e-15,12.6171429 L20.9019817,12.7017663 C21.8356046,12.7055461 22.5945316,13.4557389 22.6091178,14.3892555 L22.8571429,30.2628571 L22.8571429,30.2628571 L22.8571429,48.8228571 L-5.19711258e-15,48.8228571 L-5.19711258e-15,12.6171429 Z" id="Rectangle" stroke="#FFFFFF" stroke-width="1.82857143"></path>
                                <g id="Group-9" stroke="none" stroke-width="1" fill-rule="evenodd" transform="translate(37.622857, 20.651429)" stroke-linecap="square">
                                    <line x1="0.0498701299" y1="0.175714286" x2="21.892987" y2="0.175714286" id="Line-2" stroke="#FFFFFF" stroke-width="1.82857143"></line>
                                    <line x1="0.0498701299" y1="4.61" x2="21.892987" y2="4.61" id="Line-2" stroke="#FFFFFF" stroke-width="1.82857143"></line>
                                    <line x1="0.0498701299" y1="8.99857143" x2="21.892987" y2="8.99857143" id="Line-2" stroke="#FFFFFF" stroke-width="1.82857143"></line>
                                </g>
                            </g>
                        </g>
                    </g>
                </g>
            </g>
            <g id="Group-3" transform="translate(0.091429, 0.000000)" fill="#E56E73">
                <path d="M0,0 L3.2,0 C5.01780581,9.9834212e-16 6.49142857,1.47362277 6.49142857,3.29142857 L6.49142857,3.29142857 L6.49142857,3.29142857 L0,3.29142857 L0,0 Z" id="Rectangle"></path>
                <g id="feather" transform="translate(16.548571, 3.145143)" stroke="#FFFFFF">
                    <g id="Group-2" transform="translate(2.285714, 2.249143)">
                        <g id="Rectangle-3" stroke-width="1.82857143">
                            <path d="M9.638438,11.8857143 L1.39428571,11.8857143 L1.39428571,16.4571429 L4.22857143,16.4571429 C6.94673946,16.4571429 9.2031666,14.4801951 9.638438,11.8857143 Z M16.6555809,0.914285714 L6.4,0.914285714 C3.68183196,0.914285714 1.42540483,2.89123352 0.990133431,5.48571429 L11.2457143,5.48571429 C13.9638823,5.48571429 16.2203095,3.50876648 16.6555809,0.914285714 Z" id="Rectangle-2"></path>
                        </g>
                        <path d="M2.16091427,6.27428571 L13.7142857,6.27428571 L13.7142857,6.27428571 C13.7142857,8.799016 11.6675874,10.8457143 9.14285714,10.8457143 L1.42857143,10.8457143 L1.42857143,10.8457143 L1.42857143,7.00662856 C1.42857143,6.60216677 1.75645249,6.27428571 2.16091427,6.27428571 Z" id="Rectangle" stroke-width="1.62742855"></path>
                    </g>
                </g>
            </g>
        </g>
    </g>
</svg>