<?xml version="1.0" encoding="utf-8"?>
<!-- Generator: Adobe Illustrator 22.0.0, SVG Export Plug-In . SVG Version: 6.00 Build 0)  -->
<svg version="1.1" id="Layer_1" xmlns="http://www.w3.org/2000/svg" xmlns:xlink="http://www.w3.org/1999/xlink" x="0px" y="0px"
	 viewBox="0 0 166 49.6" style="enable-background:new 0 0 166 49.6;" xml:space="preserve">
<style type="text/css">
	.st0{fill:#4F4F4F;}
	.st1{filter:url(#Adobe_OpacityMaskFilter);}
	.st2{fill:#FFFFFF;}
	.st3{mask:url(#mask-2_1_);}
	.st4{fill:none;stroke:#FFFFFF;stroke-width:2.0915;}
	.st5{fill:none;stroke:#FFFFFF;stroke-width:2.0915;stroke-linecap:square;}
	.st6{fill:#CACACA;}
	.st7{fill:#CACACA;stroke:#FFFFFF;stroke-width:2.0915;}
	.st8{fill:#CACACA;stroke:#FFFFFF;stroke-width:1.8614;}
	.st9{fill:#111111;}
	.st10{enable-background:new    ;}
	.st11{font-family:'Poppins-SemiBold';}
	.st12{font-size:29px;}
	.st13{letter-spacing:1;}
</style>
<title>Group 24</title>
<desc>Created with Sketch.</desc>
<g id="Design">
	<g id="Artboard" transform="translate(-55.000000, -38.000000)">
		<g id="Group-4">
			<g id="Group-10" transform="translate(53.000000, 33.000000)">
				<g id="Group-24">
					<g id="logo_1_">
						<g id="v1">
							<g id="logo" transform="translate(25.470588, 9.410759)">
								<g id="Group-7" transform="translate(0.043670, 0.000000)">
									<g id="Group-6">
										<g id="Combined-Shape">
											<path id="path-1_1_" class="st0" d="M11.1,0c5.8,0,10.4,4.7,10.5,10.4l0,13.5l20.2,0c0,11.6-9.3,21.1-20.9,21.1
												C9.5,45,0.2,35.8,0.1,24.3l0-0.4c0,0,0-0.1,0-0.1V0H11.1z"/>
										</g>
										<defs>
											<filter id="Adobe_OpacityMaskFilter" filterUnits="userSpaceOnUse" x="-21.5" y="2.3" width="70.2" height="62.2">
												<feColorMatrix  type="matrix" values="1 0 0 0 0  0 1 0 0 0  0 0 1 0 0  0 0 0 1 0"/>
											</filter>
										</defs>
										<mask maskUnits="userSpaceOnUse" x="-21.5" y="2.3" width="70.2" height="62.2" id="mask-2_1_">
											<g class="st1">
												<path id="path-1_2_" class="st2" d="M11.1,0c5.8,0,10.4,4.7,10.5,10.4l0,13.5l20.2,0c0,11.6-9.3,21.1-20.9,21.1
													C9.5,45,0.2,35.8,0.1,24.3l0-0.4c0,0,0-0.1,0-0.1V0H11.1z"/>
											</g>
										</mask>
										<g id="Group-5" class="st3">
											<g transform="translate(-20.435827, 3.378582)">
												<path id="Rectangle" class="st4" d="M7.9,0h21.7c5.1,0,9.2,4.1,9.2,9.2v35.3c0,0.1,0,0.1-0.1,0.1H7.9
													c-0.1,0-0.1,0-0.1-0.1V0.1C7.8,0,7.9,0,7.9,0z"/>
												<path id="Rectangle_1_" class="st4" d="M3.6,5.1h25.7c2.9,0,5.2,2.3,5.2,5.2v39.4l0,0h-31V5.1z"/>
												<path id="Rectangle_2_" class="st4" d="M4.3,10.1l22,0.1c2.1,0,3.9,1.7,3.9,3.9l0.3,17.8l0,0v22.9H4.3V10.1z"/>
												<path id="Rectangle_3_" class="st4" d="M0,15.5l23.9,0.1c1.1,0,1.9,0.9,2,1.9l0.3,19.7l0,0v22.9H0V15.5z"/>
												<g id="Group-9" transform="translate(43.032680, 25.437908)">
													<line id="Line-2" class="st5" x1="0.1" y1="0.2" x2="25" y2="0.2"/>
													<line id="Line-2_1_" class="st5" x1="0.1" y1="5.7" x2="25" y2="5.7"/>
													<line id="Line-2_2_" class="st5" x1="0.1" y1="11.1" x2="25" y2="11.1"/>
												</g>
											</g>
										</g>
									</g>
								</g>
							</g>
							<g id="Group-3" transform="translate(25.575163, 5.356461)">
								<path id="Rectangle_4_" class="st6" d="M0,0h3.4c2.2,0,4.1,1.8,4.1,4.1l0,0l0,0H0V0z"/>
								<g id="feather" transform="translate(18.928105, 3.874108)">
									<g id="Group-2" transform="translate(2.614379, 2.770437)">
										<g id="Rectangle-3">
											<path id="Rectangle-2" class="st7" d="M11,14.6H1.6v5.8h2.7C7.7,20.4,10.5,17.8,11,14.6z M19.1,1H7.9
												C4.5,1,1.6,3.6,1.1,6.8h11.2C15.7,6.8,18.6,4.3,19.1,1z"/>
										</g>
										<path id="Rectangle_5_" class="st8" d="M2.5,7.7h13.2l0,0c0,3.1-2.5,5.6-5.6,5.6H1.6l0,0V8.6C1.6,8.1,2,7.7,2.5,7.7z"/>
									</g>
								</g>
							</g>
							
								<g id="Group-5_1_" transform="translate(13.541957, 12.431203) rotate(-345.000000) translate(-13.541957, -12.431203) translate(3.041957, 2.931203)">
								<path id="Rectangle_6_" class="st9" d="M4.3,9.3h0.3C7,9.3,9,11.2,9,13.6v0.7c0,2.4-1.9,4.3-4.3,4.3H4.3
									c-2.4,0-4.3-1.9-4.3-4.3l0-0.7C0,11.2,1.9,9.3,4.3,9.3z"/>
								<path id="Rectangle_7_" class="st9" d="M14.5,1.1h0.2c1.8,0,3.3,1.5,3.3,3.3v0.5c0,1.8-1.5,3.3-3.3,3.3h-0.2
									c-1.8,0-3.3-1.5-3.3-3.3V4.3C11.2,2.5,12.7,1.1,14.5,1.1z"/>
								<path id="Rectangle_8_" class="st2" d="M2.6,12c0.7-0.8,2.1-0.9,4.1-0.4c0.1,0,0.2,0.1,0.1,0.3c0,0.1-0.1,0.2-0.2,0.2
									c-0.8,0-1.6,0.5-1.9,1.2L4,14.9c-0.2,0.5-0.9,0.8-1.4,0.5C2.2,15.2,2,14.9,2,14.5C1.9,13.4,2.1,12.5,2.6,12z"/>
								<path id="Rectangle_9_" class="st9" d="M17.3,11.6h0.2c1.5,0,2.7,1.2,2.7,2.7v0.4c0,1.5-1.2,2.7-2.7,2.7h-0.2
									c-1.5,0-2.7-1.2-2.7-2.7v-0.4C14.6,12.8,15.8,11.6,17.3,11.6z"/>
								<path id="Rectangle_10_" class="st2" d="M16.2,6.1c0.7-0.8,0.9-2.2,0.4-4.4c0-0.1-0.1-0.2-0.2-0.1c-0.1,0-0.1,0.1-0.1,0.2
									c0,0.9-0.5,1.7-1.3,2.1l-1.4,0.8c-0.6,0.3-0.8,1-0.5,1.6c0.2,0.4,0.6,0.6,1,0.6C15,6.9,15.7,6.6,16.2,6.1z"/>
							</g>
						</g>
						<g class="st10">
							<path class="st9" d="M82.3,10.4v3.4h6.6v4.3h-6.6v3.7h7.5v4.6H76.6V5.8h13.2v4.6H82.3z"/>
							<path class="st9" d="M117.5,5.9v20.4h-5.7V14.8L108,26.4h-4.9l-3.8-11.6v11.6h-5.7V5.9h7l5,13.3l4.9-13.3H117.5z"/>
							<path class="st9" d="M127.5,10.4v3.4h6.6v4.3h-6.6v3.7h7.5v4.6h-13.2V5.8H135v4.6H127.5z"/>
							<path class="st9" d="M167.6,5.8l-4.8,20.5h-7.1l-2.8-12.7L150,26.4h-7.1l-4.8-20.5h6.1l2.3,14l3.2-14h6.2l3.2,14l2.3-14
								H167.6z"/>
						</g>
						<text transform="matrix(1 0 0 1 165.6614 33.9919)" class="st9 st11 st12 st13"> </text>
						<g class="st10">
							<path class="st9" d="M82.3,49.8h6.4v4.3H76.6V33.6h5.7V49.8z"/>
							<path class="st9" d="M101,38.4c0.8,0.5,1.5,1.2,1.9,2v-2.6h5.7v16.3h-5.7v-2.6c-0.4,0.9-1,1.6-1.9,2c-0.8,0.5-1.8,0.7-3,0.7
								c-1.3,0-2.5-0.3-3.5-1c-1-0.7-1.9-1.6-2.5-2.9c-0.6-1.3-0.9-2.8-0.9-4.5s0.3-3.2,0.9-4.4c0.6-1.3,1.4-2.2,2.5-2.9
								c1-0.7,2.2-1,3.5-1C99.2,37.7,100.2,37.9,101,38.4z M97.8,43.5C97.2,44.1,97,45,97,46c0,1.1,0.3,1.9,0.8,2.5
								c0.6,0.6,1.3,0.9,2.2,0.9c0.9,0,1.6-0.3,2.1-0.9s0.8-1.4,0.8-2.5c0-1-0.3-1.8-0.8-2.4s-1.3-0.9-2.1-0.9
								C99.1,42.7,98.3,43,97.8,43.5z"/>
							<path class="st9" d="M126.9,38.7c1,0.7,1.9,1.6,2.5,2.9c0.6,1.3,0.9,2.7,0.9,4.4s-0.3,3.2-0.9,4.5c-0.6,1.3-1.4,2.2-2.5,2.9
								c-1,0.7-2.2,1-3.5,1c-1.1,0-2.1-0.2-3-0.7c-0.8-0.5-1.4-1.2-1.9-2v2.6h-5.7V32.7h5.7v7.8c0.4-0.9,1-1.6,1.9-2
								c0.8-0.5,1.8-0.7,3-0.7C124.7,37.7,125.9,38,126.9,38.7z M119.4,43.6c-0.6,0.6-0.8,1.4-0.8,2.4c0,1,0.3,1.9,0.8,2.5
								s1.3,0.9,2.1,0.9c0.9,0,1.6-0.3,2.2-0.9c0.6-0.6,0.8-1.4,0.8-2.5c0-1-0.3-1.9-0.8-2.5c-0.6-0.6-1.3-0.9-2.2-0.9
								C120.7,42.7,120,43,119.4,43.6z"/>
							<path class="st9" d="M145.1,39.2c1.3,1,2.1,2.4,2.4,4.1h-5.3c-0.1-0.6-0.4-1-0.8-1.3c-0.4-0.3-0.9-0.4-1.5-0.4
								c-0.4,0-0.7,0.1-1,0.3s-0.3,0.4-0.3,0.8c0,0.4,0.2,0.7,0.7,0.9c0.5,0.2,1.3,0.4,2.3,0.7c1.3,0.3,2.3,0.6,3.1,0.9
								c0.8,0.3,1.5,0.8,2.1,1.5c0.6,0.7,0.9,1.6,0.9,2.8c0,0.9-0.3,1.8-0.8,2.5c-0.5,0.7-1.3,1.3-2.3,1.7c-1,0.4-2.2,0.6-3.5,0.6
								c-2.3,0-4.1-0.5-5.5-1.5s-2.2-2.4-2.5-4.2h5.5c0.1,0.6,0.3,1,0.8,1.3c0.4,0.3,1,0.4,1.6,0.4c0.4,0,0.8-0.1,1-0.3
								c0.2-0.2,0.3-0.4,0.3-0.8c0-0.5-0.2-0.8-0.7-1c-0.5-0.2-1.3-0.4-2.4-0.6c-1.2-0.3-2.3-0.5-3-0.8c-0.8-0.3-1.5-0.8-2.1-1.5
								c-0.6-0.7-0.9-1.6-0.9-2.8c0-1.5,0.6-2.7,1.7-3.6s2.8-1.4,4.9-1.4C142.1,37.7,143.8,38.2,145.1,39.2z"/>
						</g>
					</g>
					<g class="st10">
						<path class="st9" d="M151.7,49c0-0.7,0.1-1.4,0.4-2s0.6-1.2,1.1-1.6c0.5-0.5,1-0.8,1.6-1.1c0.6-0.3,1.3-0.4,2-0.4
							s1.4,0.1,2,0.4s1.2,0.6,1.6,1.1s0.8,1,1.1,1.6c0.3,0.6,0.4,1.3,0.4,2s-0.1,1.4-0.4,2c-0.3,0.6-0.6,1.2-1.1,1.6s-1,0.8-1.6,1.1
							s-1.3,0.4-2,0.4s-1.4-0.1-2-0.4c-0.6-0.3-1.2-0.6-1.6-1.1c-0.5-0.5-0.8-1-1.1-1.6S151.7,49.8,151.7,49z M152.4,49
							c0,0.6,0.1,1.2,0.3,1.8c0.2,0.5,0.5,1,0.9,1.4c0.4,0.4,0.9,0.7,1.4,1c0.5,0.2,1.1,0.4,1.7,0.4s1.2-0.1,1.7-0.4
							c0.5-0.2,1-0.6,1.4-1c0.4-0.4,0.7-0.9,0.9-1.4c0.2-0.5,0.3-1.1,0.3-1.8s-0.1-1.2-0.3-1.8c-0.2-0.6-0.5-1-0.9-1.4
							c-0.4-0.4-0.9-0.7-1.4-1c-0.5-0.2-1.1-0.4-1.7-0.4s-1.2,0.1-1.7,0.4c-0.5,0.2-1,0.6-1.4,1c-0.4,0.4-0.7,0.9-0.9,1.4
							C152.5,47.8,152.4,48.4,152.4,49z M155.9,51.8h-0.7v-5.6h1.8c0.3,0,0.5,0,0.7,0.1c0.2,0.1,0.4,0.2,0.6,0.4
							c0.2,0.1,0.3,0.3,0.4,0.5c0.1,0.2,0.1,0.4,0.1,0.7c0,0.4-0.1,0.8-0.4,1c-0.2,0.3-0.6,0.5-1,0.6l1.3,2.3H158l-1.3-2.3h-0.8
							V51.8z M157,49c0.4,0,0.7-0.1,0.9-0.3c0.2-0.2,0.3-0.4,0.3-0.8c0-0.3-0.1-0.6-0.3-0.8c-0.2-0.2-0.5-0.3-0.9-0.3h-1V49H157z"/>
					</g>
				</g>
			</g>
		</g>
	</g>
</g>
</svg>
