<?xml version="1.0" encoding="UTF-8"?>
<svg width="43px" height="50px" viewBox="0 0 43 50" version="1.1" xmlns="http://www.w3.org/2000/svg" xmlns:xlink="http://www.w3.org/1999/xlink">
    <!-- Generator: Sketch 61.2 (89653) - https://sketch.com -->
    <title>Artboard</title>
    <desc>Created with Sketch.</desc>
    <defs>
        <path d="M11.1222142,0 C16.8909452,-1.0596987e-15 21.570115,4.67138867 21.579716,10.4401117 L21.6019049,23.987 L41.7863951,23.9879336 C41.7863951,35.6189561 32.4458259,45.0477627 20.92365,45.0477627 C9.51785964,45.0477627 0.249825838,35.808475 0.0637565694,24.3397073 L0.0609048813,23.9879336 C0.0616099166,23.9510371 0.0609048813,23.914617 0.0609048813,23.8781873 L0.0609048813,0 L11.1222142,0 Z" id="path-1"></path>
    </defs>
    <g id="Artboard" stroke="none" stroke-width="1" fill="none" fill-rule="evenodd">
        <g id="Group-24">
            <g id="logo">
                <g id="v1">
                    <g id="Group-4" transform="translate(0.470588, 0.356461)">
                        <g id="logo" transform="translate(0.000000, 4.054299)">
                            <g id="Group-7" transform="translate(0.043670, 0.000000)">
                                <g id="Group-6">
                                    <mask id="mask-2" fill="white">
                                        <use xlink:href="#path-1"></use>
                                    </mask>
                                    <use id="Combined-Shape" fill="#4F4F4F" xlink:href="#path-1"></use>
                                    <g id="Group-5" mask="url(#mask-2)">
                                        <g transform="translate(-20.435827, 3.378582)">
                                            <path d="M7.94771242,0 L29.6470588,0 C34.7006448,8.48028161e-16 38.7973856,4.09674085 38.7973856,9.1503268 L38.7973856,44.4927099 C38.7973856,44.5504652 38.7505657,44.5972851 38.6928105,44.5972851 L7.94771242,44.5972851 C7.88995715,44.5972851 7.84313725,44.5504652 7.84313725,44.4927099 L7.84313725,0.104575163 C7.84313725,0.0468198954 7.88995715,-4.33479739e-16 7.94771242,0 Z" id="Rectangle" stroke="#FFFFFF" stroke-width="2.09150327"></path>
                                            <path d="M3.55555556,5.0678733 L29.2810458,5.0678733 C32.1688091,5.0678733 34.5098039,7.40886808 34.5098039,10.2966315 L34.5098039,49.6651584 L34.5098039,49.6651584 L3.55555556,49.6651584 L3.55555556,5.0678733 Z" id="Rectangle" stroke="#FFFFFF" stroke-width="2.09150327"></path>
                                            <path d="M4.2875817,10.1357466 L26.2694174,10.2315877 C28.4063802,10.2409049 30.1424733,11.9594691 30.1734754,14.0962273 L30.4313725,31.8712921 L30.4313725,31.8712921 L30.4313725,54.7330317 L4.2875817,54.7330317 L4.2875817,10.1357466 Z" id="Rectangle" stroke="#FFFFFF" stroke-width="2.09150327"></path>
                                            <path d="M-5.94440982e-15,15.5414781 L23.9059505,15.6457084 C24.9744319,15.650367 25.8424785,16.5096491 25.8579795,17.5780282 L26.1437908,37.2770236 L26.1437908,37.2770236 L26.1437908,60.1387632 L-5.94440982e-15,60.1387632 L-5.94440982e-15,15.5414781 Z" id="Rectangle" stroke="#FFFFFF" stroke-width="2.09150327"></path>
                                            <g id="Group-9" stroke="none" stroke-width="1" fill-rule="evenodd" transform="translate(43.032680, 25.437908)" stroke-linecap="square">
                                                <line x1="0.0570409982" y1="0.211161388" x2="25.0409982" y2="0.211161388" id="Line-2" stroke="#FFFFFF" stroke-width="2.09150327"></line>
                                                <line x1="0.0570409982" y1="5.67320261" x2="25.0409982" y2="5.67320261" id="Line-2" stroke="#FFFFFF" stroke-width="2.09150327"></line>
                                                <line x1="0.0570409982" y1="11.0789341" x2="25.0409982" y2="11.0789341" id="Line-2" stroke="#FFFFFF" stroke-width="2.09150327"></line>
                                            </g>
                                        </g>
                                    </g>
                                </g>
                            </g>
                        </g>
                        <g id="Group-3" transform="translate(0.104575, 0.000000)" fill="#CACACA">
                            <path d="M0,0 L3.37053796,0 C5.60966527,4.76857405e-16 7.4248366,1.81517133 7.4248366,4.05429864 L7.4248366,4.05429864 L7.4248366,4.05429864 L0,4.05429864 L0,0 Z" id="Rectangle"></path>
                            <g id="feather" transform="translate(18.928105, 3.874108)" stroke="#FFFFFF">
                                <g id="Group-2" transform="translate(2.614379, 2.770437)">
                                    <g id="Rectangle-3" stroke-width="2.09150327">
                                        <path d="M11.0316448,14.5600804 L1.59477124,14.5600804 L1.59477124,20.3519356 L4.27350427,20.3519356 C7.69423418,20.3519356 10.5282691,17.8399958 11.0316448,14.5600804 Z M19.0577886,1.04575163 L7.88335847,1.04575163 C4.46262856,1.04575163 1.62859363,3.55769145 1.12521792,6.83760684 L12.2996481,6.83760684 C15.720378,6.83760684 18.5544129,4.32566702 19.0577886,1.04575163 Z" id="Rectangle-2"></path>
                                    </g>
                                    <path d="M2.47163397,7.72850679 L15.6862745,7.72850679 L15.6862745,7.72850679 C15.6862745,10.8384058 13.1652032,13.3594771 10.0553042,13.3594771 L1.63398693,13.3594771 L1.63398693,13.3594771 L1.63398693,8.56615383 C1.63398693,8.10353414 2.00901428,7.72850679 2.47163397,7.72850679 Z" id="Rectangle" stroke-width="1.86143788"></path>
                                </g>
                            </g>
                        </g>
                    </g>
                </g>
            </g>
        </g>
    </g>
</svg>