<?xml version="1.0" encoding="UTF-8"?>
<svg width="468px" height="141px" viewBox="0 0 468 141" version="1.1" xmlns="http://www.w3.org/2000/svg" xmlns:xlink="http://www.w3.org/1999/xlink">
    <!-- Generator: Sketch 61.2 (89653) - https://sketch.com -->
    <title>Artboard</title>
    <desc>Created with Sketch.</desc>
    <defs>
        <linearGradient x1="50%" y1="0%" x2="3.4285852%" y2="100%" id="linearGradient-1">
            <stop stop-color="#FFB8BB" offset="0%"></stop>
            <stop stop-color="#FFB6B9" offset="28.7874789%"></stop>
            <stop stop-color="#FF8185" offset="100%"></stop>
        </linearGradient>
        <path d="M34.0380651,0 C51.6887827,-1.03478116e-14 66.0063776,14.2919558 66.0380137,31.9426451 L66.1033689,68.16 L127.866369,68.16 C127.866369,101.208719 99.2842274,128 64.0263689,128 C29.1210891,128 0.75867934,101.741866 0.194921673,69.1495638 L0.186368937,68.16 L0.23617133,68.1608138 C0.234373003,68.1441189 0.232621175,68.1274079 0.23091599,68.1106809 C0.201237119,67.8195453 0.186368937,67.5270898 0.186368937,67.2344454 L0.186368937,0 L34.0380651,0 Z" id="path-2"></path>
    </defs>
    <g id="Artboard" stroke="none" stroke-width="1" fill="none" fill-rule="evenodd">
        <g id="logo" transform="translate(-3.000000, -11.000000)">
            <g id="v1">
                <g id="Group-4" transform="translate(74.880000, 12.160000)">
                    <g id="logo" transform="translate(0.000000, 11.520000)">
                        <g id="Group-7" transform="translate(0.133631, 0.000000)">
                            <g id="Group-6">
                                <mask id="mask-3" fill="white">
                                    <use xlink:href="#path-2"></use>
                                </mask>
                                <use id="Combined-Shape" fill="url(#linearGradient-1)" xlink:href="#path-2"></use>
                                <g id="Group-5" mask="url(#mask-3)">
                                    <g transform="translate(-62.533631, 9.600000)">
                                        <path d="M24.32,0 L90.72,0 C106.183973,-6.39339943e-15 118.72,12.536027 118.72,28 L118.72,126.4 C118.72,126.576731 118.576731,126.72 118.4,126.72 L24.32,126.72 C24.1432689,126.72 24,126.576731 24,126.4 L24,0.32 C24,0.14326888 24.1432689,1.98998434e-16 24.32,0 Z" id="Rectangle" stroke="#FFFFFF" stroke-width="6.4"></path>
                                        <path d="M10.88,14.4 L89.6,14.4 C98.436556,14.4 105.6,21.563444 105.6,30.4 L105.6,141.12 L105.6,141.12 L10.88,141.12 L10.88,14.4 Z" id="Rectangle" stroke="#FFFFFF" stroke-width="6.4"></path>
                                        <path d="M13.12,28.8 L80.393872,29.0723639 C86.929232,29.0988228 92.2417214,34.3501724 92.3438248,40.8847884 L93.12,90.56 L93.12,90.56 L93.12,155.52 L13.12,155.52 L13.12,28.8 Z" id="Rectangle" stroke="#FFFFFF" stroke-width="6.4"></path>
                                        <path d="M-1.8189894e-14,44.16 L73.156936,44.4561819 C76.424616,44.4694114 79.0808607,47.0950862 79.1319124,50.3623942 L80,105.92 L80,105.92 L80,170.88 L-1.8189894e-14,170.88 L-1.8189894e-14,44.16 Z" id="Rectangle" stroke="#FFFFFF" stroke-width="6.4"></path>
                                        <g id="Group-9" stroke="none" stroke-width="1" fill-rule="evenodd" transform="translate(131.680000, 72.280000)" stroke-linecap="square">
                                            <line x1="0.174545455" y1="0.6" x2="76.6254545" y2="0.6" id="Line-2" stroke="#FFFFFF" stroke-width="6.4"></line>
                                            <line x1="0.174545455" y1="16.12" x2="76.6254545" y2="16.12" id="Line-2" stroke="#FFFFFF" stroke-width="6.4"></line>
                                            <line x1="0.174545455" y1="31.48" x2="76.6254545" y2="31.48" id="Line-2" stroke="#FFFFFF" stroke-width="6.4"></line>
                                        </g>
                                    </g>
                                </g>
                            </g>
                        </g>
                    </g>
                    <g id="Group-3" transform="translate(0.320000, 0.000000)" fill="#E56E73">
                        <path d="M0,0 L11.2,0 C17.5623203,-4.72145296e-15 22.72,5.15767968 22.72,11.52 L22.72,11.52 L22.72,11.52 L0,11.52 L0,0 Z" id="Rectangle"></path>
                        <g id="feather" transform="translate(57.920000, 11.008000)" stroke="#FFFFFF">
                            <g id="Group-2" transform="translate(7.000000, 7.872000)">
                                <g id="Rectangle-3" stroke-width="6.4">
                                    <path d="M32.924533,41.6 L4.07,41.6 L4.07,57.6 L13.99,57.6 C23.5035881,57.6 31.4010831,50.6806827 32.924533,41.6 Z M59.294533,3.2 L23.4,3.2 C13.8864119,3.2 5.9889169,10.1193173 4.46546701,19.2 L40.36,19.2 C49.8735881,19.2 57.7710831,12.2806827 59.294533,3.2 Z" id="Rectangle-2"></path>
                                </g>
                                <path d="M4.78,21.96 L46.78,21.96 L46.78,21.96 C46.78,30.796556 39.616556,37.96 30.78,37.96 L3.78,37.96 L3.78,37.96 L3.78,22.96 C3.78,22.4077153 4.22771525,21.96 4.78,21.96 Z" id="Rectangle" stroke-width="5.69599991"></path>
                            </g>
                        </g>
                    </g>
                </g>
                <g id="Group-5" transform="translate(37.000000, 33.000000) rotate(-345.000000) translate(-37.000000, -33.000000) translate(6.000000, 8.000000)">
                    <rect id="Rectangle" fill="#00DC04" x="-4.16812762e-12" y="23.22432" width="27.4974287" height="26.54208" rx="13.27104"></rect>
                    <rect id="Rectangle" fill="#003CFF" x="34.3717859" y="1.50874257e-12" width="20.6230715" height="19.90656" rx="9.95328"></rect>
                    <path d="M7.54269746,30.50496 C9.23115321,28.8751666 12.3192641,28.5963999 16.8070302,29.6686598 C17.0347577,29.7230817 17.1752601,29.9518025 17.1208487,30.1795325 C17.0752568,30.3703501 16.9046956,30.50496 16.708507,30.50496 C14.8316016,30.50496 13.111246,31.5512813 12.2479595,33.2178677 L10.5979673,36.4032 C9.98226428,37.5918231 8.51956894,38.0562666 7.33094585,37.4405635 C6.55569292,37.0389849 6.05632712,36.2514901 6.02364469,35.3790141 C5.94158948,33.1863664 6.44794041,31.5616817 7.54269746,30.50496 Z" id="Rectangle" fill="#FFFFFF"></path>
                    <rect id="Rectangle" fill="#FF4DC1" x="44.6833217" y="29.85984" width="17.185893" height="16.5888" rx="8.2944"></rect>
                    <path d="M37.8724807,3.55308451 C39.5040268,1.86281294 42.489507,1.57520862 46.8289213,2.69027155 C47.0633818,2.75049952 47.2046067,2.98940271 47.1443606,3.22385858 C47.0945707,3.41762234 46.9198992,3.55308451 46.7198407,3.55308451 C44.9166807,3.55308451 43.2726246,4.58513332 42.488874,6.20905475 L40.8216007,9.66362423 C40.2644192,10.8180972 38.8768491,11.3022977 37.7223762,10.7451162 C36.9545435,10.3745384 36.451682,9.61283314 36.4126124,8.76114744 C36.3046935,6.40918503 36.7913163,4.67316406 37.8724807,3.55308451 Z" id="Rectangle" fill="#FFFFFF" transform="translate(43.033441, 8.899807) scale(-1, 1) rotate(270.000000) translate(-43.033441, -8.899807) "></path>
                </g>
            </g>
            <path d="M255.8,77 L255.8,64.44 L235.08,64.44 L235.08,54.2 L253.4,54.2 L253.4,42.28 L235.08,42.28 L235.08,32.92 L255.8,32.92 L255.8,20.36 L219.32,20.36 L219.32,77 L255.8,77 Z M282.393333,77 L282.393333,45 L292.873333,77 L306.393333,77 L316.873333,45 L316.873333,77 L332.473333,77 L332.473333,20.6 L313.353333,20.6 L299.833333,57.24 L285.913333,20.6 L266.633333,20.6 L266.633333,77 L282.393333,77 Z M381.306666,77 L381.306666,64.44 L360.586666,64.44 L360.586666,54.2 L378.906666,54.2 L378.906666,42.28 L360.586666,42.28 L360.586666,32.92 L381.306666,32.92 L381.306666,20.36 L344.826666,20.36 L344.826666,77 L381.306666,77 Z M423.019999,77 L430.859999,42.04 L438.699999,77 L458.219999,77 L471.419999,20.36 L454.459999,20.36 L448.219999,58.92 L439.419999,20.36 L422.219999,20.36 L413.499999,58.92 L407.259999,20.36 L390.299999,20.36 L403.499999,77 L423.019999,77 Z M252.76,148 L252.76,136.08 L235.08,136.08 L235.08,91.36 L219.32,91.36 L219.32,148 L252.76,148 Z M278.953333,148.56 C282.1,148.56 284.833333,147.88 287.153333,146.52 C289.473333,145.16 291.193333,143.28 292.313333,140.88 L292.313333,140.88 L292.313333,148 L307.993333,148 L307.993333,103.12 L292.313333,103.12 L292.313333,110.24 C291.193333,107.84 289.473333,105.96 287.153333,104.6 C284.833333,103.24 282.1,102.56 278.953333,102.56 C275.38,102.56 272.153333,103.48 269.273333,105.32 C266.393333,107.16 264.126666,109.813333 262.473333,113.28 C260.82,116.746667 259.993333,120.826667 259.993333,125.52 C259.993333,130.213333 260.82,134.306667 262.473333,137.8 C264.126666,141.293333 266.393333,143.96 269.273333,145.8 C272.153333,147.64 275.38,148.56 278.953333,148.56 Z M284.153333,134.8 C281.7,134.8 279.713333,133.986667 278.193333,132.36 C276.673333,130.733333 275.913333,128.453333 275.913333,125.52 C275.913333,122.64 276.673333,120.386667 278.193333,118.76 C279.713333,117.133333 281.7,116.32 284.153333,116.32 C286.5,116.32 288.446666,117.146667 289.993333,118.8 C291.54,120.453333 292.313333,122.693333 292.313333,125.52 C292.313333,128.4 291.54,130.666667 289.993333,132.32 C288.446666,133.973333 286.5,134.8 284.153333,134.8 Z M349.306666,148.56 C352.879999,148.56 356.106666,147.64 358.986666,145.8 C361.866666,143.96 364.133333,141.293333 365.786666,137.8 C367.439999,134.306667 368.266666,130.213333 368.266666,125.52 C368.266666,120.826667 367.439999,116.746667 365.786666,113.28 C364.133333,109.813333 361.866666,107.16 358.986666,105.32 C356.106666,103.48 352.879999,102.56 349.306666,102.56 C346.159999,102.56 343.439999,103.24 341.146666,104.6 C338.853333,105.96 337.146666,107.84 336.026666,110.24 L336.026666,110.24 L336.026666,88.8 L320.266666,88.8 L320.266666,148 L336.026666,148 L336.026666,140.88 C337.146666,143.28 338.853333,145.16 341.146666,146.52 C343.439999,147.88 346.159999,148.56 349.306666,148.56 Z M344.106666,134.8 C341.759999,134.8 339.813333,133.973333 338.266666,132.32 C336.719999,130.666667 335.946666,128.4 335.946666,125.52 C335.946666,122.693333 336.719999,120.453333 338.266666,118.8 C339.813333,117.146667 341.759999,116.32 344.106666,116.32 C346.559999,116.32 348.546666,117.133333 350.066666,118.76 C351.586666,120.386667 352.346666,122.64 352.346666,125.52 C352.346666,128.453333 351.586666,130.733333 350.066666,132.36 C348.546666,133.986667 346.559999,134.8 344.106666,134.8 Z M398.539999,148.56 C402.273332,148.56 405.513332,147.986667 408.259999,146.84 C411.006666,145.693333 413.099999,144.106667 414.539999,142.08 C415.979999,140.053333 416.699999,137.733333 416.699999,135.12 C416.699999,131.866667 415.859999,129.28 414.179999,127.36 C412.499999,125.44 410.526666,124.053333 408.259999,123.2 C405.993332,122.346667 403.126666,121.546667 399.659999,120.8 C396.673332,120.106667 394.526666,119.48 393.219999,118.92 C391.913332,118.36 391.259999,117.52 391.259999,116.4 C391.259999,115.493333 391.566666,114.786667 392.179999,114.28 C392.793332,113.773333 393.686666,113.52 394.859999,113.52 C396.513332,113.52 397.913332,113.92 399.059999,114.72 C400.206666,115.52 400.966666,116.72 401.339999,118.32 L401.339999,118.32 L416.059999,118.32 C415.153332,113.573333 412.939999,109.76 409.419999,106.88 C405.899999,104 401.179999,102.56 395.259999,102.56 C389.446666,102.56 384.966666,103.84 381.819999,106.4 C378.673332,108.96 377.099999,112.266667 377.099999,116.32 C377.099999,119.573333 377.913332,122.12 379.539999,123.96 C381.166666,125.8 383.073332,127.133333 385.259999,127.96 C387.446666,128.786667 390.246666,129.546667 393.659999,130.24 C396.646666,130.826667 398.819999,131.413333 400.179999,132 C401.539999,132.586667 402.219999,133.52 402.219999,134.8 C402.219999,135.653333 401.899999,136.346667 401.259999,136.88 C400.619999,137.413333 399.686666,137.68 398.459999,137.68 C396.646666,137.68 395.139999,137.28 393.939999,136.48 C392.739999,135.68 392.033332,134.453333 391.819999,132.8 L391.819999,132.8 L376.699999,132.8 C377.499999,137.866667 379.766666,141.76 383.499999,144.48 C387.233332,147.2 392.246666,148.56 398.539999,148.56 Z" id="EMEWLabs" fill="#FFFFFF" fill-rule="nonzero"></path>
        </g>
    </g>
</svg>