<?xml version="1.0" encoding="UTF-8"?>
<svg width="100px" height="89px" viewBox="0 0 100 89" version="1.1" xmlns="http://www.w3.org/2000/svg" xmlns:xlink="http://www.w3.org/1999/xlink">
    <!-- Generator: Sketch 61.2 (89653) - https://sketch.com -->
    <title>q</title>
    <desc>Created with Sketch.</desc>
    <g id="Design" stroke="none" stroke-width="1" fill="none" fill-rule="evenodd" opacity="0.876139323">
        <g id="Artboard" transform="translate(-1603.000000, -3077.000000)" fill="#FFFFFF" fill-rule="nonzero">
            <g id="Group-19" transform="translate(113.000000, 2307.000000)">
                <g id="Group-23" transform="translate(0.000000, 695.000000)">
                    <path d="M1558.74984,163.249985 C1576.0155,163.249985 1589.99976,149.26572 1589.99976,132.00006 L1589.99976,85.1251714 C1589.99976,79.9494025 1585.80055,75.7501937 1580.62478,75.7501937 L1555.62484,75.7501937 C1550.44907,75.7501937 1546.24987,79.9494025 1546.24987,85.1251714 L1546.24987,110.125112 C1546.24987,115.300881 1550.44907,119.500089 1555.62484,119.500089 L1571.24981,119.500089 L1571.24981,132.00006 C1571.24981,138.894536 1565.64431,144.50003 1558.74984,144.50003 L1557.18734,144.50003 C1554.58973,144.50003 1552.49985,146.589907 1552.49985,149.187519 L1552.49985,158.562496 C1552.49985,161.160108 1554.58973,163.249985 1557.18734,163.249985 L1558.74984,163.249985 Z M1502.49997,163.249985 C1519.76563,163.249985 1533.7499,149.26572 1533.7499,132.00006 L1533.7499,85.1251714 C1533.7499,79.9494025 1529.55069,75.7501937 1524.37492,75.7501937 L1499.37498,75.7501937 C1494.19921,75.7501937 1490,79.9494025 1490,85.1251714 L1490,110.125112 C1490,115.300881 1494.19921,119.500089 1499.37498,119.500089 L1514.99994,119.500089 L1514.99994,132.00006 C1514.99994,138.894536 1509.39445,144.50003 1502.49997,144.50003 L1500.93747,144.50003 C1498.33986,144.50003 1496.24999,146.589907 1496.24999,149.187519 L1496.24999,158.562496 C1496.24999,161.160108 1498.33986,163.249985 1500.93747,163.249985 L1502.49997,163.249985 Z" id="q"></path>
                </g>
            </g>
        </g>
    </g>
</svg>