<?xml version="1.0" encoding="UTF-8"?>
<svg width="1917px" height="749px" viewBox="0 0 1917 749" version="1.1" xmlns="http://www.w3.org/2000/svg" xmlns:xlink="http://www.w3.org/1999/xlink">
    <!-- Generator: Sketch 61.2 (89653) - https://sketch.com -->
    <title>Group 30</title>
    <desc>Created with Sketch.</desc>
    <defs>
        <rect id="path-1" x="0.00228630682" y="0.835339714" width="1922" height="749"></rect>
        <linearGradient x1="50%" y1="0%" x2="50%" y2="51.9270758%" id="linearGradient-3">
            <stop stop-color="#F1ABA7" offset="0%"></stop>
            <stop stop-color="#DF726E" offset="100%"></stop>
        </linearGradient>
        <linearGradient x1="50%" y1="0%" x2="50%" y2="100%" id="linearGradient-4">
            <stop stop-color="#FCBEA4" offset="0%"></stop>
            <stop stop-color="#F8896B" offset="100%"></stop>
        </linearGradient>
    </defs>
    <g id="Design" stroke="none" stroke-width="1" fill="none" fill-rule="evenodd">
        <g id="Artboard" transform="translate(0.000000, -3767.000000)">
            <g id="Group-30" transform="translate(-5.002286, 3766.164660)">
                <mask id="mask-2" fill="white">
                    <use xlink:href="#path-1"></use>
                </mask>
                <use id="Rectangle" fill="#FCC086" xlink:href="#path-1"></use>
                <path d="M-50.5893195,-83.7126465 C167.857875,-113.444433 104.715873,-112.725852 354.754014,-107.122919 C370.554193,-106.768864 386.662644,-105.551615 401.748452,-100.841054 C531.408825,-60.3544585 595.590583,105.227307 724.058135,131.153229 C829.844585,152.501899 969.489718,100.226192 1057.2361,165.69262 C1126.88607,217.657558 1123.05175,265.778839 1165.61457,332.107708 C1199.6669,385.174026 1235.28275,401.09605 1285.03522,439.355885 C1298.24391,449.513415 1311.15277,465.132117 1328.00229,469.83534 C1333.60622,471.399571 1357.69148,482.790878 1363.39551,483.937566 C1376.12629,486.496846 1388.16362,491.805651 1400.76066,494.958001 C1451.49455,507.653922 1503.38008,519.679649 1554.87285,528.606192 C1610.96759,538.33051 1663.22561,545.106486 1716.04943,568.840561 C1718.42658,569.908629 1721.39585,569.399125 1723.63549,570.731642 C1736.19419,578.203662 1749.33389,585.183702 1760.10944,595.05485 C1786.19063,618.947041 1796.17985,650.5189 1815.84197,678.305867 C1817.39267,680.497353 1819.95694,681.830391 1821.53695,684.000846 C1830.44933,696.243809 1838.21174,709.303569 1847.2513,721.452935 C1862.80209,742.353537 1881.85846,765.771594 1899.48424,783.945539 C1913.99708,798.909721 1930.04593,812.330948 1944.56587,827.288236 C1976.35922,860.039222 1946.97288,831.347369 1960.9987,851.002821 C1987.70481,888.428124 2000.43894,924.315038 1996.99444,973.314432 C1996.1778,984.931603 1985.35503,1007.6741 1981.99622,1015.20078 C1970.04174,1041.98929 1950.16088,1065.93127 1932.00214,1088.5834 C1909.65052,1116.46593 1881.25604,1136.83882 1851.94639,1157.24919 C1808.73103,1187.34308 1765.98869,1210.73603 1718.61435,1235.28343 C1654.16069,1268.68061 1595.44124,1291.41446 1522.81143,1310.62234 C1506.05534,1315.0537 1387.09866,1338.6845 1344.09345,1339.53196 C1160.63445,1343.1472 1115.08338,1353.17576 959.312902,1298.27597 C922.331684,1285.2423 846.060956,1250.87197 803.244415,1225.71934 C790.410967,1218.18032 765.652099,1202.54721 761.314595,1186.00665 C760.193486,1181.73144 765.633971,1173.68401 761.314595,1172.74735 C741.395898,1168.42798 720.527876,1173.72431 700.169657,1172.74735 C681.223105,1171.83814 662.352995,1169.56417 643.545924,1167.09585 C502.420235,1148.5739 514.12293,1140.97556 318.801747,1105.55965 C174.958038,1079.47771 33.6636498,1073.48712 -107.082634,1031.5032 C-158.166733,1016.26506 -208.42423,1000.84082 -257.043147,978.835518 C-292.166381,962.938468 -318.303437,930.713829 -345.663094,904.887748 C-362.844322,888.669571 -380.960377,875.208174 -386.940818,850.633299 C-399.063099,800.820328 -392.035008,709.564198 -391.375076,682.131502 C-391.017909,667.284439 -385.840933,666.666786 -380.376377,654.113078 C-373.429716,638.154532 -369.20639,621.427557 -362.074196,605.597081 C-325.602862,524.646044 -293.405262,461.643216 -267.020227,377.189329 C-258.5836,350.185158 -257.031629,300.347178 -261.086147,277.78805 C-273.77382,207.194491 -289.263299,216.600849 -291.930323,162.084351 C-293.182908,136.480325 -292.497789,110.808775 -291.930323,85.1804092 C-291.570152,68.9140649 -275.605828,46.1346402 -268.302684,33.9038689 C-241.387473,-11.1717629 -211.65194,-40.461236 -167.053797,-66.7363947 L-50.5893195,-83.7126465 Z" id="Path-11" fill="url(#linearGradient-3)" mask="url(#mask-2)" transform="translate(801.774716, 616.239043) rotate(-360.000000) translate(-801.774716, -616.239043) "></path>
                <path d="M-143.877681,112.454812 C-114.343917,83.1100645 -101.211048,78.5448148 -53.1416344,71.3153779 C-13.3367481,65.3288911 30.3367363,53.251389 69.4625196,68.1418594 C102.412701,80.6820225 133.350023,97.2691526 161.212098,119.134155 C215.059568,161.391419 235.369723,187.877581 303.089977,210.019739 C375.822313,233.800671 406.975747,219.148454 477.317807,203.905315 C483.004986,202.672903 488.960028,203.311837 494.714006,202.443171 C596.074171,187.141031 701.775433,168.342517 801.216083,204.470235 C871.257457,229.916921 910.652788,289.702001 950.304994,348.358563 C1005.84417,430.516333 908.613735,290.233117 965.002286,368.83534 C984.977118,396.679045 962.533549,367.790002 978.933122,386.839552 C997.699885,408.638802 1004.88396,427.919761 1023.00229,449.83534 C1044.89559,476.317057 1020.81239,449.054759 1067.49257,487.727535 C1090.90413,507.123137 1117.3223,518.685459 1144.82008,531.558645 C1147.65247,532.884636 1177.20228,545.074998 1183.93245,546.844703 C1219.82073,556.28156 1241.70096,562.755721 1277.04448,563.094447 C1286.44507,563.18454 1510.69006,535.728362 1597.03817,575.489446 C1626.0259,588.837553 1650.21789,609.345317 1673.25246,630.768484 C1714.89478,669.497682 1746.30934,726.44616 1799.71136,751.495111 C1833.13826,767.174457 1869.97066,769.228347 1905.48423,775.670344 C1918.63707,778.056208 1931.34567,782.765004 1944.5966,784.526289 C1953.68828,785.734733 1963.33964,781.847989 1972.11151,784.526289 C1998.52762,792.591878 2019.47283,815.3176 2035.51542,835.950581 C2062.53158,870.697086 2087.66219,903.796337 2106.8282,944.099441 C2126.01429,984.444775 2145.43242,1037.16987 2149.11409,1082.30534 C2150.82142,1103.23639 2153.05399,1116.46744 2140.39107,1132.74933 C2124.81196,1152.78084 2090.5305,1176.63953 2071.02227,1190.37113 C2004.95894,1236.87228 1937.74537,1268.47372 1858.54607,1288.55082 C1745.78437,1317.13601 1637.47366,1336.27949 1520.9568,1341.32095 C1475.03083,1343.30808 1429.01324,1342.04334 1383.04997,1341.32095 C1367.67466,1341.0793 1352.13075,1341.2213 1337.00903,1338.42989 C1246.76346,1321.77094 1201.58974,1300.54271 1109.08061,1274.49429 C1056.07649,1259.56957 1002.10276,1248.21639 949.175155,1233.02255 C941.194429,1230.73154 933.79039,1226.57548 926.761142,1222.15616 C920.617747,1218.29378 916.931376,1210.25624 909.929863,1208.34886 C886.535136,1201.9756 842.144758,1198.68933 813.461545,1198.57908 C651.469296,1197.95638 489.408023,1193.93331 327.481209,1198.57908 C197.752407,1202.30107 -27.0335494,1244.79718 -158.116976,1218.91618 C-208.047011,1209.05803 -229.047866,1195.30318 -280.937128,1168.90418 C-365.715726,1125.77253 -391.30645,1058.68215 -417.331965,971.747268 C-429.343769,931.623386 -438.796797,890.385902 -439.347212,848.34558 C-440.004752,799.235021 -440.418977,750.104348 -439.347212,701.001274 C-438.134138,645.424174 -417.537111,591.727295 -404.754198,538.354294 C-379.370671,432.369456 -360.584845,344.071568 -290.607222,255.645299 C-264.987531,223.271326 -219.84919,194.73717 -191.364152,172.784895 L-143.877681,112.454812 Z" id="Path-10" fill="url(#linearGradient-4)" mask="url(#mask-2)"></path>
            </g>
        </g>
    </g>
</svg>